<svg enable-background="new 0 0 202.2 227.6" viewBox="0 0 202.2 227.6" xmlns="http://www.w3.org/2000/svg"><g clip-rule="evenodd" fill-rule="evenodd"><path d="m16.3 44.3h-16.3l7.4 60.1 68.1-6.4-3.8-3-55.4-2.5z" fill="#bfd730"/><path d="m45.8 0-.1 16.4h94.3v-6.3z" fill="#bfd730"/><path d="m151.9 13.1h31.1v97l-77.3-22.3z" fill="#bfd730"/><path d="m20 20.1h120l-39.6 69.9 82.6 27.6v22l-85.8-43.9-16.2 1.5-5.1-4.6-55.9-5.5z" fill="#00274f"/><path d="m96.7 99.1-84.4 12.4v72.5h61.4l31.8-79.6z" fill="#bfd730"/><path d="m81.8 184h101.2v-37.4l-74.6-40.5z" fill="#bfd730"/><path d="m200.5 177.1v5.7h-3.6v-5.2h-1.4v5.2h-3.4v-5.6h-1.3v6.9h11.1v-7z"/><path d="m195 172.6h-1.4v.3c0 .8.4 1.3 1.6 2h-1.4v1.1h8.1v-1.2h-4.7c-1.3 0-2.2-.7-2.2-1.8z"/><path d="m195 168.7h-1.4v.3c0 .8.4 1.3 1.6 2h-1.4v1.1h8.1v-1.2h-4.7c-1.3 0-2.2-.7-2.2-1.8z"/><path d="m199.4 163.6c.9.1 1.6.9 1.6 1.8 0 .7-.3 1.2-.8 1.5s-.9.4-1.8.4v-5c-1.5 0-2.3.2-3.1.6-1.1.5-1.6 1.3-1.6 2.4 0 2 1.7 3.3 4.4 3.3 2.6 0 4.1-1.2 4.1-3.2 0-1.6-1-2.7-2.8-3zm-2.2 3.8c-1.5-.1-2.4-.9-2.4-2 0-.6.3-1.1.7-1.4s.8-.4 1.7-.5z"/><path d="m193.8 160.4v1.1h8.1v-1.2h-4.4c-1.7 0-2.7-.7-2.7-1.9 0-1 .6-1.4 2.1-1.4h5v-1.2h-5.5c-1.8 0-2.8.8-2.8 2.3 0 .9.4 1.6 1.4 2.2h-1.2z"/><path d="m194.9 152.1h-1.1v1.1h-2.3v1.2h2.3v.9h1.1v-.9h5.3c1.2 0 1.7-.4 1.7-1.3 0-.1 0-.1 0-.4l-.1-.5h-1.1v.4c0 .5-.2.7-.6.7h-5.3v-1.2z"/><path d="m199.4 146.8c.9.1 1.6.9 1.6 1.8 0 .7-.3 1.2-.8 1.5s-.9.4-1.8.4v-5c-1.5 0-2.3.2-3.1.6-1.1.5-1.6 1.3-1.6 2.4 0 2 1.7 3.3 4.4 3.3 2.6 0 4.1-1.2 4.1-3.2 0-1.6-1-2.7-2.8-3zm-2.2 3.8c-1.5-.1-2.4-.9-2.4-2 0-.6.3-1.1.7-1.4s.8-.4 1.7-.5z"/><path d="m195 141.2h-1.4v.3c0 .8.4 1.3 1.6 2h-1.4v1.1h8.1v-1.2h-4.7c-1.3 0-2.2-.7-2.2-1.8z"/><path d="m193.8 139.6v1.2h8.1v-1.2zm-1.5 0h-1.5v1.2h1.5z"/><path d="m196.3 137.3c-1.1-.2-1.6-.6-1.6-1.6 0-1.1.4-1.6 1.3-1.6.6 0 .9.2.9.6l.3 1.9c.2 1.3 1.1 2.1 2.5 2.1s2.4-.9 2.4-2.2c0-1-.4-1.7-1.3-2.4.9-.1 1.2-.4 1.2-1.2 0-.2 0-.3-.1-.5 0-.1 0-.1 0-.1h-1v.1.3c0 .2-.2.4-.5.4h-4.7c-1.4 0-2.3 1-2.3 2.6 0 1.1.4 1.9 1 2.3.4.3.9.4 1.7.4v-1.1zm2.8-3.1c1 0 1.9 1 1.9 2.1 0 .8-.5 1.2-1.4 1.2-.8 0-1.2-.4-1.4-1.5-.2-1.3-.3-1.7-.5-1.9h1.4z"/><path d="m190.8 126.9v1.3h11.1v-6h-1.4v4.7z"/><path d="m199.4 116.9c.9.1 1.6.9 1.6 1.8 0 .7-.3 1.2-.8 1.5s-.9.4-1.8.4v-5c-1.5 0-2.3.2-3.1.6-1.1.5-1.6 1.3-1.6 2.4 0 2 1.7 3.2 4.4 3.2 2.6 0 4.1-1.2 4.1-3.2 0-1.6-1-2.7-2.8-3zm-2.2 3.7c-1.5-.1-2.4-.9-2.4-2 0-.6.3-1.1.7-1.4s.8-.4 1.7-.5z"/><path d="m194.9 109.5h-1.1v5.3h1.1v-3.8l5.9 4.2h1.1v-5.8h-1.1v4.2z"/><path d="m193.6 105.8c0 1.9 1.7 3.2 4.3 3.2 2.5 0 4.2-1.3 4.2-3.2s-1.7-3.2-4.3-3.2c-2.5.1-4.2 1.3-4.2 3.2zm1.2.1c0-1.2 1.2-2 3.1-2s3.1.8 3.1 2-1.2 2-3.1 2c-1.9-.1-3.1-.8-3.1-2z"/><path d="m190.5 94.3c0 1.4.5 2.5 1.4 3.2 1.1.9 2.7 1.4 4.5 1.4 1.7 0 3.3-.5 4.4-1.4.9-.8 1.4-1.9 1.4-3.2s-.5-2.4-1.4-3.2c-1.1-.9-2.7-1.4-4.4-1.4-1.2 0-2.4.3-3.3.7-1.7.9-2.6 2.2-2.6 3.9zm1.3.1c0-2 1.8-3.3 4.5-3.3s4.5 1.3 4.5 3.3-1.8 3.3-4.5 3.3c-2.6 0-4.5-1.3-4.5-3.3z"/><path d="m193.8 87.7v1.2h8.1v-1.2zm-1.5 0h-1.5v1.2h1.5z"/><path d="m196.3 85.5c-1.1-.2-1.6-.6-1.6-1.6 0-1.1.4-1.6 1.3-1.6.6 0 .9.2.9.6l.3 1.9c.2 1.3 1.1 2.1 2.5 2.1s2.4-.9 2.4-2.2c0-1-.4-1.7-1.3-2.4.9-.1 1.2-.4 1.2-1.2 0-.2 0-.3-.1-.5 0-.1 0-.1 0-.1h-1v.1.3c0 .2-.2.4-.5.4h-4.7c-1.4 0-2.3 1-2.3 2.6 0 1.1.4 1.9 1 2.3.4.3.9.4 1.7.5v-1.2zm2.8-3.2c1 0 1.9 1 1.9 2.1 0 .8-.5 1.2-1.4 1.2-.8 0-1.2-.4-1.4-1.5-.2-1.3-.3-1.7-.5-1.9h1.4z"/><path d="m195 76.2h-1.4v.3c0 .8.4 1.3 1.6 2h-1.4v1.1h8.1v-1.2h-4.7c-1.3 0-2.2-.7-2.2-1.8z"/><path d="m194.9 73.2h-1.1v1.1h-2.3v1.2h2.3v.9h1.1v-.9h5.3c1.2 0 1.7-.4 1.7-1.3 0-.1 0-.1 0-.4l-.1-.5h-1.1v.4c0 .5-.2.7-.6.7h-5.3v-1.2z"/><path d="m194.9 67.4h-1.1v5.3h1.1v-3.8l5.9 4.2h1.1v-5.8h-1.1v4.2z"/><path d="m201.9 61h-8.1v1.2h4.5c1.6 0 2.7.7 2.7 1.9 0 .9-.6 1.3-1.8 1.3h-5.4v1.2h5.8c1.6 0 2.5-.8 2.5-2.3 0-1-.4-1.6-1.5-2.2h1.3z"/><path d="m193.8 58.6v1.1h8.1v-1.2h-4.4c-1.7 0-2.7-.7-2.7-1.9 0-1 .6-1.4 2.1-1.4h5v-1.2h-5.5c-1.8 0-2.8.8-2.8 2.3 0 .9.4 1.6 1.4 2.2h-1.2z"/><path d="m197.2 48.1v-2.9c0-1.7-1.3-2.8-3.3-2.8-1.9 0-3.1 1.1-3.1 2.8v4.2h11.1v-1.3zm-5.1 0v-2.6c0-1.3.6-1.9 1.9-1.9s1.9.6 1.9 1.9v2.5h-3.8z"/><path d="m196.3 40.4c-1.1-.2-1.6-.6-1.6-1.6 0-1.1.4-1.6 1.3-1.6.6 0 .9.2.9.6l.3 1.9c.2 1.3 1.1 2.1 2.5 2.1s2.4-.9 2.4-2.2c0-1-.4-1.7-1.3-2.4.9-.1 1.2-.4 1.2-1.2 0-.2 0-.3-.1-.5 0-.1 0-.1 0-.1h-1v.1.3c0 .2-.2.4-.5.4h-4.7c-1.4 0-2.3 1-2.3 2.6 0 1.1.4 1.9 1 2.3.4.3.9.4 1.7.5v-1.2zm2.8-3.2c1 0 1.9 1 1.9 2.1 0 .8-.5 1.2-1.4 1.2-.8 0-1.2-.4-1.4-1.5-.2-1.3-.3-1.7-.5-1.9h1.4z"/><path d="m196.1 29.6c-1.6.1-2.5 1-2.5 2.6s1 2.6 2.5 2.6c1 0 1.7-.5 2-1.6l.4-1.3c.3-1.1.6-1.4 1.2-1.4.8 0 1.3.6 1.3 1.6 0 1.2-.5 1.7-1.6 1.8v1.1c.8 0 1.1-.1 1.6-.4.8-.4 1.3-1.3 1.3-2.5 0-1.7-1-2.9-2.7-2.9-1.1 0-1.7.5-2.1 1.9l-.3 1.2c-.3 1-.5 1.2-1.1 1.2-.7 0-1.1-.5-1.1-1.4 0-1 .4-1.5 1.3-1.6v-.9z"/><path d="m196.3 27.5c-1.1-.2-1.6-.6-1.6-1.6 0-1.1.4-1.6 1.3-1.6.6 0 .9.2.9.6l.3 1.9c.2 1.3 1.1 2.1 2.5 2.1s2.4-.9 2.4-2.2c0-1-.4-1.7-1.3-2.4.9-.1 1.2-.4 1.2-1.2 0-.2 0-.3-.1-.5 0-.1 0-.1 0-.1h-1v.1.3c0 .2-.2.4-.5.4h-4.7c-1.4 0-2.3 1-2.3 2.6 0 1.1.4 1.9 1 2.3.4.3.9.4 1.7.4v-1.1zm2.8-3.2c1 0 1.9 1 1.9 2.1 0 .8-.5 1.2-1.4 1.2-.8 0-1.2-.4-1.4-1.5-.2-1.3-.3-1.7-.5-1.9h1.4z"/><path d="m193.8 20.5v1.2h8.1v-1.2zm-1.5 0h-1.5v1.2h1.5z"/><path d="m196.3 18.3c-1.1-.2-1.6-.6-1.6-1.6 0-1.1.4-1.6 1.3-1.6.6 0 .9.2.9.6l.3 1.9c.2 1.3 1.1 2.1 2.5 2.1s2.4-.9 2.4-2.2c0-1-.4-1.7-1.3-2.4.9-.1 1.2-.4 1.2-1.2 0-.2 0-.3-.1-.5 0-.1 0-.1 0-.1h-1v.1.3c0 .2-.2.4-.5.4h-4.7c-1.4 0-2.3 1-2.3 2.6 0 1.1.4 1.9 1 2.3.4.3.9.4 1.7.5v-1.2zm2.8-3.2c1 0 1.9 1 1.9 2.1 0 .8-.5 1.2-1.4 1.2-.8 0-1.2-.4-1.4-1.5-.2-1.3-.3-1.7-.5-1.9h1.4z"/><path d="m23.4 187.3c-1.4 0-2.9.1-4 .2-2.1.2-4.1 1.2-5.2 2.7-1.2 1.6-1.6 3.6-1.6 9.8 0 2.6.1 3.8.3 4.9.4 2.2 1.2 3.5 2.9 4.6 1.5 1 3.3 1.3 7.1 1.3 5.4 0 7.9-.8 9.4-3.1 1.1-1.7 1.4-3.3 1.4-8.7 0-3.4-.1-4.8-.3-5.9-.5-2.4-1.6-4-3.6-4.9-1.5-.6-3-.9-6.4-.9zm-.1 4.6c2.9 0 3.8.3 4.4 1.4.5.9.5 1.6.5 5.7 0 3.4-.1 4.2-.4 5.2-.6 1.6-1.4 2-4.5 2-3.3 0-4.2-.3-4.7-1.4-.4-.9-.5-1.9-.5-5.1 0-2.3 0-3.7.1-4.4.1-1.6.6-2.5 1.5-2.9.6-.4 1.3-.5 3.6-.5z"/><path d="m41.1 199.2c.1-1.7.5-2 2.5-2 2.2 0 2.9.6 2.9 2.6v2.9h-.1c-.7-1.5-1.7-1.9-4.8-1.9-4.2 0-5.9 1.4-5.9 5 0 3.7 1.5 5.1 5.8 5.1 3.1 0 4.2-.6 5-2.6h.1l-.2 2.4h4.6v-10.5c0-4.5-1.8-5.8-7.6-5.8-3.5 0-5.1.3-6.1 1.4-.8.8-1 1.6-1 3.6h4.8zm2.3 4.5c2.4 0 3.1.4 3.1 1.9 0 1.6-.7 2.1-2.8 2.1-2.6 0-3.2-.4-3.2-2.1 0-1.5.7-1.9 2.9-1.9z"/><path d="m54.8 194.5v16.2h4.6v-9.4-.6c0-1.8.8-2.8 2.4-2.8 1.4 0 1.7.6 1.7 2.7v.7h4.2c0-2.8 0-3.4-.2-4.2-.5-1.8-1.8-2.7-4-2.7-2.1 0-3.2.7-4.3 2.7h-.1l.2-2.5h-4.5z"/><path d="m83.7 199c0-3.7-1.5-4.7-7-4.7-6 0-7.6 1-7.6 4.9 0 2.5.8 3.8 2.7 4.4 1.1.3 2.7.5 5.7.5 1.8 0 2.3.4 2.3 1.8s-.6 1.8-3.1 1.8-3-.3-3-1.7c0-.1 0-.2 0-.4h-4.7c0 1.6.1 2.3.6 3 .9 1.6 2.7 2.2 6.8 2.2 3.5 0 5.1-.3 6.4-1.4 1-.9 1.6-2.2 1.6-4 0-1.7-.5-2.9-1.4-3.7-.9-.7-1.9-.9-5.2-1.1-2.5-.1-2.9-.1-3.2-.2-.6-.2-.9-.6-.9-1.5 0-.6.2-1.1.5-1.3.4-.2.8-.3 2.3-.3 2.3 0 2.6.2 2.8 1.4v.2h4.4z"/><path d="m94.7 194.3c-3.7 0-5.1.3-6.3 1.4-1.3 1.1-1.7 2.7-1.7 6.4 0 4.5.3 6 1.6 7.2 1.2 1.1 2.9 1.5 6.4 1.5 6.4 0 7.7-1.5 7.7-8.9 0-3.4-.4-5.1-1.6-6.2s-2.7-1.4-6.1-1.4zm-.2 3.5c2.7 0 3.2.7 3.2 4.3 0 4.5-.4 5.2-3.2 5.2s-3.2-.7-3.2-5.1c0-3.7.5-4.4 3.2-4.4z"/><path d="m109.5 199.1c.1-1.9.6-2.3 3.1-2.3 2.6 0 3.3.6 3.3 3.2v2.6h-.1c-.7-1.5-1.8-1.9-4.9-1.9-4.3 0-6 1.4-6 5.1 0 3.6 1.6 5 5.9 5 3.1 0 4.3-.6 5.1-2.4h.1l-.2 2.2h3.9v-10.6c0-4.5-1.7-5.8-7.2-5.8-3.5 0-5.1.4-6.1 1.4-.7.8-.9 1.6-.9 3.5zm2.7 4.3c2.8 0 3.6.5 3.6 2.4 0 1.8-.9 2.4-3.5 2.4-2.8 0-3.5-.5-3.5-2.4.1-2 .7-2.4 3.4-2.4z" fill="#00274f"/><path d="m123.6 187.5h3.9v23.1h-3.9z" fill="#00274f"/><path d="m145.8 187.5h-3.9v9.2h-.1c-.7-1.8-2.1-2.5-4.8-2.5-2.3 0-3.8.5-4.7 1.6-1.1 1.3-1.5 2.7-1.5 6.7s.3 5.6 1.5 6.8c1 1 2.6 1.5 4.8 1.5 2.8 0 4.1-.8 5-2.8h.1l-.1 2.6h3.8v-23.1zm-7.7 9.9c3.1 0 3.7.9 3.7 4.9 0 4.7-.5 5.5-3.7 5.5-2.9 0-3.5-.9-3.5-5.4.1-4.2.7-5 3.5-5z" fill="#00274f"/><path d="m160 205.5c0 2.1-.6 2.5-3.4 2.5-3 0-3.6-.8-3.6-4.2v-.5h10.9c0-3.4-.1-4.2-.3-5.3-.8-2.8-2.6-3.7-6.9-3.7-6.1 0-7.6 1.6-7.6 8.2 0 6.8 1.5 8.4 7.8 8.4 5.5 0 7.1-1.2 7.1-5.4zm.1-4.7h-7.1c0-1.4.1-1.8.2-2.3.4-1.1 1.2-1.4 3.3-1.4 2.9 0 3.4.5 3.5 3v.7z" fill="#00274f"/><path d="m171.2 199.1c.1-1.9.6-2.3 3.1-2.3 2.6 0 3.3.6 3.3 3.2v2.6h-.1c-.7-1.5-1.8-1.9-4.9-1.9-4.3 0-6 1.4-6 5.1 0 3.6 1.6 5 5.9 5 3.1 0 4.3-.6 5.1-2.4h.1l-.2 2.2h3.9v-10.6c0-4.5-1.7-5.8-7.2-5.8-3.5 0-5.1.4-6.1 1.4-.7.8-.9 1.6-.9 3.5zm2.7 4.3c2.8 0 3.6.5 3.6 2.4 0 1.8-.9 2.4-3.5 2.4-2.8 0-3.5-.5-3.5-2.4.1-2 .7-2.4 3.4-2.4z" fill="#00274f"/><path d="m18.5 215.6h-1.1v1.2c-.6-1.1-1.2-1.5-2.1-1.5-1.7 0-2.8 1.7-2.8 4.2 0 2.8 1.2 4.6 3 4.6.9 0 1.4-.4 1.9-1.2v.3c0 1-.1 1.5-.3 2-.3.7-.9 1-1.7 1-.9 0-1.3-.4-1.5-1.3h-1.2c.2 1.1.4 1.5.9 1.9.4.4 1 .6 1.7.6 1.2 0 2.1-.4 2.6-1.3.4-.7.6-1.6.6-2.9zm-3 1.1c1.2 0 1.9 1.2 1.9 3.4 0 1.9-.7 3-1.9 3s-1.8-1.2-1.8-3.3c-.1-2.1.6-3.1 1.8-3.1z"/><path d="m25 221.4c-.1.9-.9 1.6-1.8 1.6-.7 0-1.2-.3-1.5-.8s-.4-.9-.4-1.9h5c0-1.6-.2-2.4-.6-3.2-.5-1.2-1.3-1.7-2.4-1.7-2 0-3.3 1.8-3.3 4.6 0 2.7 1.2 4.3 3.2 4.3 1.6 0 2.7-1.1 3-2.9zm-3.8-2.2c.1-1.5.9-2.5 2-2.5.6 0 1.1.3 1.4.8.3.4.4.9.5 1.8h-3.9z"/><path d="m31.3 216.9v-1.4c-.1 0-.2 0-.3 0-.8 0-1.3.5-2 1.7v-1.4h-1.1v8.4h1.2v-4.9c0-1.3.7-2.2 1.8-2.2h.4z"/><path d="m35.2 215.4c-1.9 0-3.2 1.8-3.2 4.4s1.3 4.4 3.2 4.4 3.2-1.8 3.2-4.4c-.1-2.6-1.4-4.4-3.2-4.4zm-.1 1.2c1.2 0 2 1.2 2 3.2 0 1.9-.8 3.2-2 3.2s-2-1.3-2-3.2c.1-1.9.8-3.2 2-3.2z"/><path d="m40.9 218.2c.2-1.2.6-1.6 1.6-1.6 1.1 0 1.6.5 1.6 1.4 0 .6-.2.9-.6 1l-1.9.3c-1.3.2-2.1 1.1-2.1 2.6s.9 2.5 2.2 2.5c1 0 1.7-.4 2.4-1.4.1.9.4 1.3 1.2 1.3.2 0 .3 0 .5-.1h.1v-1h-.1c-.2 0-.2 0-.3 0-.2 0-.4-.2-.4-.5v-4.8c0-1.5-1-2.3-2.6-2.3-1.1 0-1.9.4-2.3 1.1-.3.5-.4.9-.5 1.7h1.2zm3.2 2.9c0 1.1-1 2-2.1 2-.8 0-1.2-.5-1.2-1.4 0-.8.4-1.2 1.5-1.4 1.3-.2 1.7-.3 1.9-.5v1.3z"/><path d="m55.8 221.4c-.1.9-.9 1.6-1.8 1.6-.7 0-1.2-.3-1.5-.8s-.4-.9-.4-1.9h5c0-1.6-.2-2.4-.6-3.2-.5-1.2-1.3-1.7-2.4-1.7-2 0-3.3 1.8-3.3 4.6 0 2.7 1.2 4.3 3.2 4.3 1.6 0 2.7-1.1 3-2.9zm-3.8-2.2c.1-1.5.9-2.5 2-2.5.6 0 1.1.3 1.4.8.3.4.4.9.5 1.8h-3.9z"/><path d="m62.1 216.9v-1.4c-.1 0-.2 0-.3 0-.8 0-1.3.5-2 1.7v-1.4h-1.1v8.4h1.2v-4.9c0-1.3.7-2.2 1.8-2.2h.4z"/><path d="m67.9 221.4c-.1.9-.9 1.6-1.8 1.6-.7 0-1.2-.3-1.5-.8s-.4-.9-.4-1.9h5c0-1.6-.2-2.4-.6-3.2-.5-1.2-1.3-1.7-2.4-1.7-2 0-3.3 1.8-3.3 4.6 0 2.7 1.2 4.3 3.2 4.3 1.6 0 2.7-1.1 3-2.9zm-3.8-2.2c.1-1.5.9-2.5 2-2.5.6 0 1.1.3 1.4.8.3.4.4.9.5 1.8h-3.9z"/><path d="m71.9 215.6h-1.2v8.4h1.2zm0-1.5v-1.6h-1.2v1.6z"/><path d="m76.3 216.8v-1.2h-1.1v-2.3h-1.2v2.3h-.9v1.2h.9v5.5c0 1.2.4 1.8 1.3 1.8h.4l.5-.1v-1.1h-.4c-.5 0-.7-.2-.7-.7v-5.5h1.2z"/><path d="m82.3 221.4c-.1.9-.9 1.6-1.8 1.6-.7 0-1.2-.3-1.5-.8s-.4-.9-.4-1.9h5c0-1.6-.2-2.4-.6-3.2-.5-1.2-1.3-1.7-2.4-1.7-2 0-3.3 1.8-3.3 4.6 0 2.7 1.2 4.3 3.2 4.3 1.6 0 2.7-1.1 3-2.9zm-3.7-2.2c.1-1.5.9-2.5 2-2.5.6 0 1.1.3 1.4.8.3.4.4.9.5 1.8h-3.9z"/><path d="m86.3 215.6h-1.1v8.4h1.2v-4.6c0-1.7.7-2.8 1.9-2.8 1 0 1.4.7 1.4 2.2v5.2h1.2v-5.7c0-1.8-.9-2.9-2.3-2.9-.9 0-1.6.4-2.2 1.5v-1.3z"/><g fill="#00274f"><path d="m101.9 218.5c-.2-2.1-1.1-3.1-2.6-3.1-2 0-3.3 1.8-3.3 4.6 0 2.6 1.2 4.3 3.1 4.3 1.6 0 2.5-1.1 2.8-3.2h-1.1c-.2 1.3-.8 2-1.7 2-1.2 0-1.8-1.1-1.8-3.2 0-2 .7-3.2 1.9-3.2.9 0 1.4.5 1.6 1.8z"/><path d="m106.7 216.9v-1.4c-.1 0-.2 0-.3 0-.8 0-1.3.5-2 1.7v-1.4h-1.1v8.4h1.2v-4.9c0-1.3.7-2.2 1.8-2.2h.4z"/><path d="m112.5 221.4c-.1.9-.9 1.6-1.8 1.6-.7 0-1.2-.3-1.5-.8s-.4-.9-.4-1.9h5c0-1.6-.2-2.4-.6-3.2-.5-1.2-1.3-1.7-2.4-1.7-2 0-3.3 1.8-3.3 4.6 0 2.7 1.2 4.3 3.2 4.3 1.6 0 2.7-1.1 3-2.9zm-3.8-2.2c.1-1.5.9-2.5 2-2.5.6 0 1.1.3 1.4.8.3.4.4.9.5 1.8h-3.9z"/><path d="m116.3 218.2c.2-1.2.6-1.6 1.6-1.6 1.1 0 1.6.5 1.6 1.4 0 .6-.2.9-.6 1l-1.9.3c-1.3.2-2.1 1.1-2.1 2.6s.9 2.5 2.2 2.5c1 0 1.7-.4 2.4-1.4.1.9.4 1.3 1.2 1.3.2 0 .3 0 .5-.1h.1v-1h-.1c-.2 0-.2 0-.3 0-.2 0-.4-.2-.4-.5v-4.8c0-1.5-1-2.3-2.6-2.3-1.1 0-1.9.4-2.3 1.1-.3.5-.4.9-.4 1.7h1.1zm3.2 2.9c0 1.1-1 2-2.1 2-.8 0-1.2-.5-1.2-1.4 0-.8.4-1.2 1.5-1.4 1.3-.2 1.7-.3 1.9-.5v1.3z"/><path d="m123.9 215.6h-1.1v8.4h1.2v-4.6c0-1.7.7-2.8 1.9-2.8 1 0 1.4.7 1.4 2.2v5.2h1.2v-5.7c0-1.8-.9-2.9-2.3-2.9-.9 0-1.6.4-2.2 1.5v-1.3z"/><path d="m136 212.5h-1.2v4.4c-.5-1.1-1.2-1.5-2.1-1.5-1.7 0-2.8 1.7-2.8 4.2 0 2.8 1.2 4.6 3 4.6.9 0 1.5-.4 2-1.4v1.2h1.1zm-3.1 4.2c1.2 0 1.9 1.2 1.9 3.4 0 1.9-.7 3-1.9 3s-1.8-1.2-1.8-3.3.6-3.1 1.8-3.1z"/><path d="m140.7 215.4c-1.9 0-3.2 1.8-3.2 4.4s1.3 4.4 3.2 4.4 3.2-1.8 3.2-4.4c-.1-2.6-1.4-4.4-3.2-4.4zm-.1 1.2c1.2 0 2 1.2 2 3.2 0 1.9-.8 3.2-2 3.2s-2-1.3-2-3.2.8-3.2 2-3.2z"/><path d="m151.7 216.8v-1.2h-1.2v-1c0-.7.2-1 .7-1h.5v-1.3h-.1c-.2 0-.3 0-.5 0-1.1 0-1.7.6-1.7 1.8v1.4h-1v1.2h1v7.2h1.2v-7.2h1.1z"/><path d="m158.5 224v-8.4h-1.2v4.6c0 1.7-.7 2.8-1.9 2.8-.9 0-1.3-.6-1.3-1.8v-5.6h-1.1v6c0 1.6.8 2.6 2.3 2.6 1 0 1.6-.4 2.2-1.5v1.3z"/><path d="m163 216.8v-1.2h-1.1v-2.3h-1.2v2.3h-.9v1.2h.9v5.5c0 1.2.4 1.8 1.3 1.8h.4l.5-.1v-1.1h-.4c-.5 0-.7-.2-.7-.7v-5.5h1.2z"/><path d="m169.8 224v-8.4h-1.2v4.6c0 1.7-.7 2.8-1.9 2.8-.9 0-1.3-.6-1.3-1.8v-5.6h-1.2v6c0 1.6.8 2.6 2.3 2.6 1 0 1.6-.4 2.2-1.5v1.3z"/><path d="m175.3 216.9v-1.4c-.1 0-.2 0-.3 0-.8 0-1.3.5-2 1.7v-1.4h-1.1v8.4h1.2v-4.9c0-1.3.7-2.2 1.8-2.2h.4z"/><path d="m179.2 215.4c-1.9 0-3.2 1.8-3.2 4.4s1.3 4.4 3.2 4.4 3.2-1.8 3.2-4.4c-.1-2.6-1.4-4.4-3.2-4.4zm-.1 1.2c1.2 0 2 1.2 2 3.2 0 1.9-.8 3.2-2 3.2s-2-1.3-2-3.2c.1-1.9.8-3.2 2-3.2z"/></g></g></svg>